<svg t="1728130353318" class="icon" viewBox="0 0 1024 1024" version="1.1" xmlns="http://www.w3.org/2000/svg" p-id="6438"
    width="24" height="24">
    <path
        d="M 299.3 624.4 v 87.5 c 0 14.6 10.7 21.2 23.8 14.7 l 83.5 -42 v -32.8 L 323.1 609.8 c -13.1 -6.6 -23.8 0 -23.8 14.7 z M 654.4 436 c 36.7 0 66.6 -29.9 66.6 -66.6 s -29.9 -66.6 -66.6 -66.6 c -36.7 0 -66.6 29.9 -66.6 66.6 s 29.9 66.6 66.6 66.6 z M 443.6 435.7 c 47.7 0 86.6 -38.8 86.6 -86.6 s -38.8 -86.6 -86.6 -86.6 s -86.6 38.8 -86.6 86.6 s 38.8 86.6 86.6 86.6 z"
        fill="#ff4a08" p-id="6439"></path>
    <path
        d="M 849.9 51.2 H 174.1 c -67.9 0 -122.9 55 -122.9 122.9 v 675.8 c 0 67.9 55 122.9 122.9 122.9 h 675.8 c 67.9 0 122.9 -55 122.9 -122.9 V 174.1 c 0 -67.9 -55 -122.9 -122.9 -122.9 z M 443.6 204.8 c 54.1 0 101.2 29.9 125.9 74 c 22.2 -20.9 52.1 -33.7 84.9 -33.7 c 68.5 0 124.3 55.8 124.3 124.3 s -55.8 124.3 -124.3 124.3 c -41.4 0 -78.1 -20.4 -100.7 -51.6 c -26.5 31.3 -66 51.2 -110.1 51.2 c -79.6 0 -144.3 -64.7 -144.3 -144.3 S 364 204.8 443.6 204.8 z m 336.7 505.6 c 0 60 -48.8 108.8 -108.8 108.8 H 515.3 c -47.1 0 -87.2 -30 -102.3 -72 l -87.8 42.4 c -9.4 4.6 -19 6.9 -28.4 6.9 h 0 c -30.7 0 -53 -24.4 -53 -57.9 v -140.6 c 0 -33.6 22.3 -57.9 53 -57.9 c 9.4 0 18.9 2.3 28.4 6.9 l 87.6 42.3 c 14.9 -42.3 55.3 -72.6 102.6 -72.6 h 156.1 c 60 0 108.8 48.8 108.8 108.8 v 85.1 z"
        fill="#ff4a08" p-id="6440"></path>
    <path
        d="M 671.5 574.3 H 515.3 c -28.1 0 -51.1 22.9 -51.1 51.1 v 85.1 c 0 28.1 22.9 51.1 51.1 51.1 h 156.1 c 28.1 0 51.1 -22.9 51.1 -51.1 v -85.1 c 0 -28.1 -22.9 -51.1 -51.1 -51.1 z"
        fill="#ff4a08" p-id="6441"></path>
</svg>